<?xml version="1.0" standalone="no"?><!DOCTYPE svg PUBLIC "-//W3C//DTD SVG 1.1//EN" "http://www.w3.org/Graphics/SVG/1.1/DTD/svg11.dtd"><svg t="1704788462038" class="icon" viewBox="0 0 1221 1024" version="1.1" xmlns="http://www.w3.org/2000/svg" p-id="38867" xmlns:xlink="http://www.w3.org/1999/xlink" width="238.4765625" height="200"><path d="M 1197.24 74.5699 C 1155.66 18.8134 1068.12 6.09278 943.885 37.7734 a 25.9252 25.9252 0 0 0 12.8243 50.243 C 1056.02 62.6961 1128.47 69.091 1155.68 105.559 c 31.5942 42.379 7.24177 128.416 -63.4303 232.342 a 512.023 512.023 0 1 0 -843.623 536.116 a 520.232 520.232 0 0 0 57.865 49.9319 C 186.662 962.076 97.1508 960.9 65.5393 918.521 c -28.172 -37.7644 -11.77 -112.118 44.937 -203.945 A 25.9252 25.9252 0 1 0 66.3689 687.32 c -70.4992 114.157 -85.1729 204.826 -42.3963 262.19 c 18.6489 25.0092 57.0354 53.7516 134.725 53.7516 c 5.08134 0 10.3701 -0.120984 15.7798 -0.380236 c 52.7491 -2.48882 116.957 -17.2835 187.456 -43.2087 a 512.092 512.092 0 0 0 760.576 -447.642 a 516.654 516.654 0 0 0 -11.9256 -110.614 c 44.7987 -60.0946 77.3089 -117.32 94.7652 -167.096 c 29.3473 -83.6865 11.7873 -133.083 -8.10594 -159.751 Z m -857.26 343.405 a 25.9252 25.9252 0 0 1 -48.3937 -18.8044 a 371.836 371.836 0 0 1 346.533 -236.939 a 25.9252 25.9252 0 0 1 0 51.8504 c -132.944 0 -249.988 80.0397 -298.192 203.893 Z m 745.609 15.7625 c -80.6792 100.14 -189.064 202.096 -313.47 294.89 C 647.37 821.647 518.504 896.571 399.248 945.276 a 25.9252 25.9252 0 1 1 -19.6167 -47.9962 c 115.229 -47.0801 240.24 -119.774 361.518 -210.219 c 120.984 -90.2197 226.12 -189.064 304.051 -285.834 a 25.9252 25.9252 0 1 1 40.3742 32.5102 Z" fill="#8a8a8a" p-id="38868"></path></svg>