<?xml version="1.0" standalone="no"?><!DOCTYPE svg PUBLIC "-//W3C//DTD SVG 1.1//EN" "http://www.w3.org/Graphics/SVG/1.1/DTD/svg11.dtd"><svg t="1704788109940" class="icon" viewBox="0 0 1024 1024" version="1.1" xmlns="http://www.w3.org/2000/svg" p-id="18851" xmlns:xlink="http://www.w3.org/1999/xlink" width="200" height="200"><path d="M329.7792 282.7776c-17.2032 0-31.1808-13.9264-31.1808-31.1808V144.9472c0-17.2032 13.9264-31.1808 31.1808-31.1808 17.2032 0 31.1808 13.9264 31.1808 31.1808v106.6496c0 17.2544-13.9776 31.1808-31.1808 31.1808zM710.2976 282.7776c-17.2032 0-31.1808-13.9264-31.1808-31.1808V144.9472c0-17.2032 13.9264-31.1808 31.1808-31.1808 17.2032 0 31.1808 13.9264 31.1808 31.1808v106.6496c0 17.2544-13.9776 31.1808-31.1808 31.1808z" fill="#bfbfbf" p-id="18852"></path><path d="M800.0512 179.7632v59.4944c0 50.0224-40.5504 90.5728-90.5728 90.5728s-90.5728-40.5504-90.5728-90.5728V174.1824H420.608v65.0752c0 50.0224-40.5504 90.5728-90.5728 90.5728S239.4624 289.28 239.4624 239.2576V178.3808c-72.4992 16.64-126.6176 81.5104-126.6176 159.0784V727.04c0 90.1632 73.1136 163.2768 163.2768 163.2768H757.76c90.1632 0 163.2768-73.1136 163.2768-163.2768V337.4592c0-75.52-51.3024-139.0592-120.9856-157.696z m-204.4928 517.376h-286.72c-18.176 0-32.9216-14.7456-32.9216-32.9216s14.7456-32.9216 32.9216-32.9216h286.72c18.176 0 32.9216 14.7456 32.9216 32.9216s-14.7456 32.9216-32.9216 32.9216z m140.5952-166.7072H308.8384c-18.176 0-32.9216-14.7456-32.9216-32.9216s14.7456-32.9216 32.9216-32.9216h427.3152c18.176 0 32.9216 14.7456 32.9216 32.9216s-14.7456 32.9216-32.9216 32.9216z" fill="#bfbfbf" p-id="18853"></path></svg>