<?xml version="1.0" encoding="UTF-8"?>
<svg xmlns="http://www.w3.org/2000/svg" xmlns:xlink="http://www.w3.org/1999/xlink" width="24" height="24" version="1.1" viewBox="0 0 56 56">
  <defs>
    <path id="_uxs-a" d="M27.9068765,36 C41.1027635,36 44.5468639,43.9071569 45.7924974,46.5555556 C45.8356093,46.6472176 45.8774841,46.7417076 45.918122,46.8390255 C41.2537662,51.2771097 34.9448657,54 28,54 C20.987908,54 14.624153,51.2241394 9.94766329,46.7113467 L10.0212556,46.5555556 L10.0212556,46.5555556 C11.3245661,43.9071569 14.7109895,36 27.9068765,36 Z M27.9068765,13 C33.1535816,13 37.4068765,17.2532949 37.4068765,22.5 C37.4068765,27.7467051 33.1535816,32 27.9068765,32 C22.6601714,32 18.4068765,27.7467051 18.4068765,22.5 C18.4068765,17.2532949 22.6601714,13 27.9068765,13 Z"/>
  </defs>
  <g fill="none" fill-rule="evenodd" stroke="none" stroke-width="1">
    <circle cx="28" cy="28" r="28" fill="#000" opacity=".2"/>
    <use fill="#FFF" fill-opacity=".9" xlink:href="#_uxs-a"/>
  </g>
</svg>