<?xml version="1.0" standalone="no"?><!DOCTYPE svg PUBLIC "-//W3C//DTD SVG 1.1//EN" "http://www.w3.org/Graphics/SVG/1.1/DTD/svg11.dtd"><svg t="1692179320195" class="icon" viewBox="0 0 1024 1024" version="1.1" xmlns="http://www.w3.org/2000/svg" p-id="2118" xmlns:xlink="http://www.w3.org/1999/xlink" width="32" height="32"><path d="M600.746667 515.413333m-358.4 0a358.4 358.4 0 1 0 716.8 0 358.4 358.4 0 1 0-716.8 0Z" fill="#333333" opacity=".3" p-id="2119"></path><path d="M512 989.866667C249.173333 989.866667 34.133333 774.826667 34.133333 512S249.173333 34.133333 512 34.133333s477.866667 215.04 477.866667 477.866667-215.04 477.866667-477.866667 477.866667z m0-904.533334C276.48 85.333333 85.333333 276.48 85.333333 512s191.146667 426.666667 426.666667 426.666667 426.666667-191.146667 426.666667-426.666667S747.52 85.333333 512 85.333333z" fill="#333333" p-id="2120"></path><path d="M964.266667 537.6h-904.533334c-13.653333 0-25.6-11.946667-25.6-25.6s11.946667-25.6 25.6-25.6h904.533334c13.653333 0 25.6 11.946667 25.6 25.6s-11.946667 25.6-25.6 25.6z" fill="#333333" p-id="2121"></path><path d="M512 989.866667c-117.76 0-206.506667-204.8-206.506667-477.866667S394.24 34.133333 512 34.133333c117.76 0 206.506667 204.8 206.506667 477.866667S629.76 989.866667 512 989.866667z m0-904.533334c-73.386667 0-155.306667 175.786667-155.306667 426.666667s81.92 426.666667 155.306667 426.666667 155.306667-175.786667 155.306667-426.666667S585.386667 85.333333 512 85.333333z" fill="#333333" p-id="2122"></path><path d="M512 356.693333c-128 0-247.466667-49.493333-337.92-139.946666-10.24-10.24-10.24-25.6 0-35.84s25.6-10.24 35.84 0c80.213333 80.213333 187.733333 124.586667 302.08 124.586666 114.346667 0 221.866667-44.373333 302.08-124.586666 10.24-10.24 25.6-10.24 35.84 0s10.24 25.6 0 35.84C759.466667 307.2 640 356.693333 512 356.693333zM831.146667 851.626667c-6.826667 0-13.653333-1.706667-18.773334-6.826667-80.213333-80.213333-187.733333-124.586667-302.08-124.586667-114.346667 0-221.866667 44.373333-302.08 124.586667-10.24 10.24-25.6 10.24-35.84 0s-10.24-25.6 0-35.84c90.453333-90.453333 209.92-139.946667 337.92-139.946667s247.466667 49.493333 337.92 139.946667c10.24 10.24 10.24 25.6 0 35.84-3.413333 3.413333-10.24 6.826667-17.066666 6.826667z" fill="#333333" p-id="2123"></path></svg>